<svg width="19" height="24" viewBox="0 0 19 24" fill="none" xmlns="http://www.w3.org/2000/svg">
<path d="M8.65384 20.1562H10.5288V18.9062H12.0913C12.3573 18.9062 12.5801 18.8164 12.7596 18.6369C12.9391 18.4575 13.0288 18.2347 13.0288 17.9687V14.2187C13.0288 13.9527 12.9391 13.7299 12.7596 13.5504C12.5801 13.371 12.3573 13.2812 12.0913 13.2812H8.02879V11.4062H13.0288V9.53122H10.5288V8.28122H8.65384V9.53122H7.09132C6.8253 9.53122 6.60255 9.62096 6.42306 9.80044C6.24358 9.97992 6.15384 10.2027 6.15384 10.4687V14.2187C6.15384 14.4847 6.24358 14.7075 6.42306 14.8869C6.60255 15.0664 6.8253 15.1562 7.09132 15.1562H11.1538V17.0312H6.15384V18.9062H8.65384V20.1562ZM2.2596 23.7499C1.62819 23.7499 1.09374 23.5312 0.656244 23.0937C0.218748 22.6562 0 22.1217 0 21.4903V2.2596C0 1.62819 0.218748 1.09374 0.656244 0.656244C1.09374 0.218748 1.62819 0 2.2596 0H12.1875L18.7499 6.56243V21.4903C18.7499 22.1217 18.5312 22.6562 18.0937 23.0937C17.6562 23.5312 17.1217 23.7499 16.4903 23.7499H2.2596ZM11.25 6.73071V1.87495H2.2596C2.16344 1.87495 2.07529 1.91502 1.99516 1.99516C1.91502 2.07529 1.87495 2.16344 1.87495 2.2596V21.4903C1.87495 21.5865 1.91502 21.6746 1.99516 21.7548C2.07529 21.8349 2.16344 21.875 2.2596 21.875H16.4903C16.5865 21.875 16.6746 21.8349 16.7548 21.7548C16.8349 21.6746 16.875 21.5865 16.875 21.4903V6.73071H11.25ZM1.87495 1.87495V6.73071V1.87495V6.73071V21.4903C1.87495 21.5865 1.87495 21.6746 1.87495 21.7548C1.87495 21.8349 1.87495 21.875 1.87495 21.875C1.87495 21.875 1.87495 21.8349 1.87495 21.7548C1.87495 21.6746 1.87495 21.5865 1.87495 21.4903V2.2596C1.87495 2.16344 1.87495 2.07529 1.87495 1.99516C1.87495 1.91502 1.87495 1.87495 1.87495 1.87495Z" fill="#003EC7"/>
</svg>