<svg width="24" height="24" viewBox="0 0 24 24" fill="none" xmlns="http://www.w3.org/2000/svg">
<path d="M9.37495 16.899C11.4583 16.899 13.2291 16.1687 14.6875 14.708C16.1458 13.2473 16.875 11.4736 16.875 9.38697C16.875 7.3003 16.1458 5.52663 14.6875 4.06596C13.2291 2.60529 11.4583 1.87495 9.37495 1.87495C7.29162 1.87495 5.52079 2.60529 4.06245 4.06596C2.60412 5.52663 1.87495 7.3003 1.87495 9.38697C1.87495 11.4736 2.60412 13.2473 4.06245 14.708C5.52079 16.1687 7.29162 16.899 9.37495 16.899ZM8.43748 12.8725V4.77162H10.3124V12.8725H8.43748ZM4.15864 12.8725V7.21152H6.03359V12.8725H4.15864ZM12.7163 12.8725V8.43748H14.5913V12.8725H12.7163ZM22.4447 23.7499L15.3269 16.6321C14.5128 17.2988 13.6003 17.8184 12.5894 18.191C11.5786 18.5636 10.5071 18.7499 9.37495 18.7499C6.75778 18.7499 4.54099 17.8419 2.7246 16.0259C0.908199 14.2098 0 11.9935 0 9.37686C0 6.76022 0.908014 4.54325 2.72404 2.72595C4.54007 0.908649 6.7564 0 9.37305 0C11.9897 0 14.2067 0.908199 16.024 2.7246C17.8413 4.54099 18.7499 6.75778 18.7499 9.37495C18.7499 10.5071 18.5636 11.5786 18.191 12.5894C17.8184 13.6003 17.2988 14.5088 16.6321 15.3148L23.7499 22.4326L22.4447 23.7499Z" fill="#003EC7"/>
</svg>
