<svg width="24" height="25" viewBox="0 0 24 25" fill="none" xmlns="http://www.w3.org/2000/svg">
<path d="M20.173 24.9086C20.0224 24.9086 19.8821 24.8845 19.7523 24.8364C19.6225 24.7884 19.4991 24.7058 19.3822 24.5888L13.0793 18.298C12.9623 18.181 12.8798 18.0576 12.8317 17.9278C12.7836 17.798 12.7596 17.6578 12.7596 17.5071C12.7596 17.3565 12.7836 17.2163 12.8317 17.0865C12.8798 16.9567 12.9623 16.8333 13.0793 16.7163L15.447 14.3485C15.564 14.2315 15.6874 14.149 15.8172 14.1009C15.947 14.0528 16.0873 14.0288 16.2379 14.0288C16.3885 14.0288 16.5288 14.0528 16.6586 14.1009C16.7884 14.149 16.9118 14.2315 17.0288 14.3485L23.3316 20.6514C23.4486 20.7684 23.5312 20.8918 23.5792 21.0216C23.6273 21.1514 23.6513 21.2916 23.6513 21.4422C23.6513 21.5929 23.6273 21.7331 23.5792 21.8629C23.5312 21.9927 23.4486 22.1161 23.3316 22.2331L20.9639 24.5888C20.8469 24.7058 20.7235 24.7884 20.5937 24.8364C20.4639 24.8845 20.3237 24.9086 20.173 24.9086ZM20.173 22.7692L21.5 21.4422L16.2571 16.1994L14.9302 17.5264L20.173 22.7692ZM3.49757 24.9278C3.34693 24.9278 3.2035 24.9005 3.06728 24.8461C2.93107 24.7916 2.80446 24.7058 2.68748 24.5888L0.33894 22.2523C0.221953 22.1353 0.136216 22.0087 0.0817299 21.8725C0.0272433 21.7363 0 21.5929 0 21.4422C0 21.2916 0.0272433 21.1494 0.0817299 21.0156C0.136216 20.8817 0.221953 20.7563 0.33894 20.6394L6.86778 14.1105H9.49999L10.5144 13.0961L5.28604 7.86773H3.50479L0.0360603 4.39901L3.13459 1.30048L6.60331 4.76921V6.55046L11.8317 11.7788L15.5288 8.08171L13.7043 6.25715L15.286 4.67543H12.1033L11.4086 3.99276L15.4014 0L16.084 0.682678V3.87737L17.6658 2.29565L22.3677 6.97355C22.6978 7.29566 22.9466 7.66265 23.1141 8.0745C23.2816 8.48636 23.3653 8.92225 23.3653 9.38219C23.3653 9.78603 23.2956 10.175 23.1562 10.5492C23.0167 10.9234 22.814 11.2636 22.548 11.5697L19.9398 8.96148L18.1778 10.7235L16.8533 9.39898L10.8052 15.447V18.084L4.28843 24.5888C4.17144 24.7058 4.04804 24.7916 3.91824 24.8461C3.78843 24.9005 3.64821 24.9278 3.49757 24.9278ZM3.49757 22.7572L9.23077 17.024V15.697H7.90382L2.17061 21.4302L3.49757 22.7572ZM3.49757 22.7572L2.17061 21.4302L2.8437 22.0841L3.49757 22.7572ZM20.173 22.7692L21.5 21.4422L20.173 22.7692Z" fill="#003EC7"/>
</svg>
